<svg xmlns="http://www.w3.org/2000/svg" viewBox="0 0 400 300">
  <defs>
    <linearGradient id="bg" x1="0" y1="0" x2="1" y2="1">
      <stop offset="0%" stop-color="#0a2a3a"/>
      <stop offset="50%" stop-color="#1a0a2a"/>
      <stop offset="100%" stop-color="#3a0a2a"/>
    </linearGradient>
    <linearGradient id="n" x1="0" y1="0" x2="0" y2="1">
      <stop offset="0%" stop-color="#00e5ff" stop-opacity=".4"/>
      <stop offset="100%" stop-color="transparent"/>
    </linearGradient>
  </defs>
  <rect width="400" height="300" fill="url(#bg)"/>
  <rect x="0" y="200" width="400" height="100" fill="url(#n)" opacity=".2"/>
  <rect x="20" y="160" width="40" height="140" fill="#0a0a15"/>
  <rect x="70" y="120" width="50" height="180" fill="#0a0a15"/>
  <rect x="130" y="180" width="35" height="120" fill="#0a0a15"/>
  <rect x="175" y="100" width="55" height="200" fill="#0a0a15"/>
  <rect x="240" y="140" width="40" height="160" fill="#0a0a15"/>
  <rect x="290" y="170" width="45" height="130" fill="#0a0a15"/>
  <rect x="345" y="130" width="55" height="170" fill="#0a0a15"/>
  <rect x="20" y="160" width="40" height="2" fill="#00e5ff" opacity=".6"/>
  <rect x="70" y="120" width="50" height="2" fill="#ff00aa" opacity=".6"/>
  <rect x="175" y="100" width="55" height="2" fill="#00e5ff" opacity=".5"/>
  <rect x="345" y="130" width="55" height="2" fill="#ff00aa" opacity=".5"/>
  <rect x="80" y="140" width="4" height="4" fill="#00e5ff" opacity=".3"/>
  <rect x="92" y="140" width="4" height="4" fill="#ff00aa" opacity=".2"/>
  <rect x="104" y="140" width="4" height="4" fill="#00e5ff" opacity=".25"/>
  <rect x="185" y="120" width="4" height="4" fill="#ff00aa" opacity=".3"/>
  <rect x="200" y="120" width="4" height="4" fill="#00e5ff" opacity=".2"/>
  <rect x="215" y="120" width="4" height="4" fill="#ff00aa" opacity=".25"/>
  <rect x="0" y="280" width="400" height="20" fill="#0a0a15" opacity=".8"/>
</svg>