<svg xmlns="http://www.w3.org/2000/svg" viewBox="0 0 400 300">
  <defs>
    <linearGradient id="bg" x1="0" y1="0" x2=".5" y2="1">
      <stop offset="0%" stop-color="#1a1a20"/>
      <stop offset="100%" stop-color="#0a1a2a"/>
    </linearGradient>
  </defs>
  <rect width="400" height="300" fill="url(#bg)"/>
  <rect x="0" y="260" width="400" height="40" fill="#0a0a10"/>
  <rect x="30" y="200" width="35" height="100" fill="#0a0a10"/>
  <rect x="75" y="220" width="25" height="80" fill="#0a0a10"/>
  <rect x="110" y="180" width="30" height="120" fill="#0a0a10"/>
  <rect x="197" y="80" width="6" height="180" fill="#0a0a10"/>
  <ellipse cx="200" cy="120" rx="14" ry="18" fill="#0a0a10"/>
  <circle cx="200" cy="120" r="10" fill="#0e1525" opacity=".8"/>
  <circle cx="200" cy="78" r="3" fill="#0a0a10"/>
  <rect x="240" y="210" width="40" height="90" fill="#0a0a10"/>
  <rect x="290" y="190" width="30" height="110" fill="#0a0a10"/>
  <rect x="330" y="230" width="35" height="70" fill="#0a0a10"/>
  <rect x="375" y="215" width="25" height="85" fill="#0a0a10"/>
  <rect x="148" y="240" width="5" height="20" fill="#0a0a10"/>
  <rect x="158" y="240" width="5" height="20" fill="#0a0a10"/>
  <rect x="168" y="240" width="5" height="20" fill="#0a0a10"/>
  <rect x="146" y="235" width="30" height="6" fill="#0a0a10"/>
  <circle cx="200" cy="150" r="30" fill="none" stroke="#4a6a8a" stroke-width=".8" opacity=".25"/>
  <circle cx="200" cy="150" r="20" fill="none" stroke="#4a6a8a" stroke-width=".5" opacity=".2"/>
  <line x1="200" y1="115" x2="200" y2="135" stroke="#4a6a8a" stroke-width=".8" opacity=".25"/>
  <line x1="200" y1="165" x2="200" y2="185" stroke="#4a6a8a" stroke-width=".8" opacity=".25"/>
  <line x1="165" y1="150" x2="185" y2="150" stroke="#4a6a8a" stroke-width=".8" opacity=".25"/>
  <line x1="215" y1="150" x2="235" y2="150" stroke="#4a6a8a" stroke-width=".8" opacity=".25"/>
  <rect x="0" y="250" width="400" height="50" fill="#1a1a2a" opacity=".2"/>
</svg>