<svg xmlns="http://www.w3.org/2000/svg" viewBox="0 0 400 300">
  <defs>
    <linearGradient id="bg" x1="0" y1="0" x2="0.5" y2="1">
      <stop offset="0%" stop-color="#020208"/>
      <stop offset="100%" stop-color="#0a1a3a"/>
    </linearGradient>
  </defs>
  <rect width="400" height="300" fill="url(#bg)"/>
  <!-- Stars -->
  <circle cx="30" cy="20" r="1" fill="#ffffff" opacity="0.6"/>
  <circle cx="80" cy="50" r="0.8" fill="#ffffff" opacity="0.4"/>
  <circle cx="150" cy="25" r="1.2" fill="#ffffff" opacity="0.5"/>
  <circle cx="220" cy="45" r="0.8" fill="#ffffff" opacity="0.3"/>
  <circle cx="290" cy="20" r="1" fill="#ffffff" opacity="0.5"/>
  <circle cx="360" cy="55" r="0.8" fill="#ffffff" opacity="0.4"/>
  <circle cx="50" cy="90" r="0.6" fill="#ffffff" opacity="0.3"/>
  <circle cx="340" cy="100" r="1" fill="#ffffff" opacity="0.35"/>
  <circle cx="120" cy="120" r="0.8" fill="#ffffff" opacity="0.25"/>
  <circle cx="380" cy="150" r="0.7" fill="#ffffff" opacity="0.3"/>
  <circle cx="20" cy="180" r="1" fill="#ffffff" opacity="0.3"/>
  <circle cx="370" cy="230" r="0.8" fill="#ffffff" opacity="0.25"/>
  <circle cx="60" cy="260" r="0.6" fill="#ffffff" opacity="0.2"/>
  <circle cx="310" cy="270" r="1" fill="#ffffff" opacity="0.2"/>
  <!-- Spaceship body -->
  <path d="M140 170 L200 140 L260 170 L240 178 L160 178 Z" fill="#080e1a" opacity="0.9"/>
  <!-- Cockpit -->
  <ellipse cx="200" cy="162" rx="18" ry="8" fill="#1a2a4a" opacity="0.5"/>
  <!-- Engine glow -->
  <rect x="165" y="178" width="15" height="4" fill="#2a4a8a" opacity="0.4"/>
  <rect x="220" y="178" width="15" height="4" fill="#2a4a8a" opacity="0.4"/>
  <!-- Engine trails -->
  <rect x="168" y="182" width="9" height="20" rx="2" fill="#2a4a8a" opacity="0.15"/>
  <rect x="223" y="182" width="9" height="20" rx="2" fill="#2a4a8a" opacity="0.15"/>
  <circle cx="330" cy="80" r="18" fill="#0a1a3a" opacity="0.6"/>
</svg>