<svg xmlns="http://www.w3.org/2000/svg" viewBox="0 0 400 300">
  <defs>
    <linearGradient id="bg" x1="0" y1="0" x2="0.3" y2="1">
      <stop offset="0%" stop-color="#1a2a1a"/>
      <stop offset="50%" stop-color="#152015"/>
      <stop offset="100%" stop-color="#2a2a30"/>
    </linearGradient>
  </defs>
  <rect width="400" height="300" fill="url(#bg)"/>
  <!-- Hill -->
  <path d="M100 280 Q200 200 300 280 L400 300 L0 300 Z" fill="#0a120a" opacity="0.6"/>
  <!-- Manor -->
  <rect x="155" y="195" width="90" height="60" fill="#0a0f0a" opacity="0.9"/>
  <!-- Roof -->
  <path d="M145 195 L200 160 L255 195 Z" fill="#0a0f0a" opacity="0.9"/>
  <!-- Towers -->
  <rect x="148" y="175" width="18" height="80" fill="#0a0f0a" opacity="0.9"/>
  <path d="M146 175 L157 158 L168 175 Z" fill="#0a0f0a" opacity="0.9"/>
  <rect x="234" y="175" width="18" height="80" fill="#0a0f0a" opacity="0.9"/>
  <path d="M232 175 L243 158 L254 175 Z" fill="#0a0f0a" opacity="0.9"/>
  <!-- Windows (eerie glow) -->
  <rect x="178" y="210" width="10" height="14" fill="#3a4a2a" opacity="0.35"/>
  <rect x="212" y="210" width="10" height="14" fill="#3a4a2a" opacity="0.25"/>
  <rect x="193" y="210" width="14" height="20" fill="#3a4a2a" opacity="0.3"/>
  <!-- Lightning hint -->
  <path d="M320 30 L315 60 L322 58 L310 100" fill="none" stroke="#8a8aa0" stroke-width="1" opacity="0.15"/>
  <!-- Storm clouds -->
  <ellipse cx="100" cy="40" rx="80" ry="25" fill="#1a1a22" opacity="0.5"/>
  <ellipse cx="280" cy="50" rx="90" ry="30" fill="#1a1a22" opacity="0.4"/>
  <ellipse cx="200" cy="30" rx="70" ry="20" fill="#1a1a22" opacity="0.45"/>
  <!-- Trees -->
  <path d="M80 280 L85 230 L75 230 L82 200 L72 200 L80 170 L88 200 L78 200 L85 230 L75 230 Z" fill="#0a0f0a" opacity="0.5"/>
  <path d="M320 280 L325 240 L315 240 L322 215 L330 240 L320 240 Z" fill="#0a0f0a" opacity="0.5"/>
</svg>